<!DOCTYPE svg PUBLIC "-//W3C//DTD SVG 1.1//EN" "http://www.w3.org/Graphics/SVG/1.1/DTD/svg11.dtd">
<!-- Uploaded to: SVG Repo, www.svgrepo.com, Transformed by: SVG Repo Mixer Tools -->
<svg width="800px" height="800px" viewBox="-3.2 -3.2 38.40 38.40" version="1.1" xmlns="http://www.w3.org/2000/svg" xmlns:xlink="http://www.w3.org/1999/xlink" xmlns:sketch="http://www.bohemiancoding.com/sketch/ns" fill="#000000">
<g id="SVGRepo_bgCarrier" stroke-width="0" transform="translate(4.960000000000001,4.960000000000001), scale(0.69)">
<path transform="translate(-3.2, -3.2), scale(2.4)" fill="#ffffff" d="M9.166.33a2.25 2.25 0 00-2.332 0l-5.25 3.182A2.25 2.25 0 00.5 5.436v5.128a2.25 2.25 0 001.084 1.924l5.25 3.182a2.25 2.25 0 002.332 0l5.25-3.182a2.25 2.25 0 001.084-1.924V5.436a2.25 2.25 0 00-1.084-1.924L9.166.33z" strokewidth="0"/>
</g>
<g id="SVGRepo_tracerCarrier" stroke-linecap="round" stroke-linejoin="round"/>
<g id="SVGRepo_iconCarrier"> <title>plus-circle</title> <desc>Created with Sketch Beta.</desc> <defs> </defs> <g id="Page-1" stroke="none" stroke-width="1" fill="none" fill-rule="evenodd" sketch:type="MSPage"> <g id="Icon-Set-Filled" sketch:type="MSLayerGroup" transform="translate(-466.000000, -1089.000000)" fill="#000000"> <path d="M488,1106 L483,1106 L483,1111 C483,1111.55 482.553,1112 482,1112 C481.447,1112 481,1111.55 481,1111 L481,1106 L476,1106 C475.447,1106 475,1105.55 475,1105 C475,1104.45 475.447,1104 476,1104 L481,1104 L481,1099 C481,1098.45 481.447,1098 482,1098 C482.553,1098 483,1098.45 483,1099 L483,1104 L488,1104 C488.553,1104 489,1104.45 489,1105 C489,1105.55 488.553,1106 488,1106 L488,1106 Z M482,1089 C473.163,1089 466,1096.16 466,1105 C466,1113.84 473.163,1121 482,1121 C490.837,1121 498,1113.84 498,1105 C498,1096.16 490.837,1089 482,1089 L482,1089 Z" id="plus-circle" sketch:type="MSShapeGroup"> </path> </g> </g> </g>
</svg>